<svg width="1235" height="229" viewBox="0 0 1235 229" fill="none" xmlns="http://www.w3.org/2000/svg">
<path d="M317.934 102.375C317.934 126.712 329.597 140.775 349.472 140.775C365.484 140.775 375.459 131.512 378.722 113.625H398.372C394.097 141.412 375.722 158.25 349.434 158.25C319.134 158.25 298.134 135.825 298.134 102.375C298.134 68.925 319.134 46.5 349.434 46.5C375.722 46.5 394.097 63.3375 398.372 91.125H378.722C375.459 73.2375 365.484 63.975 349.472 63.975C329.597 63.975 317.934 78.0375 317.934 102.375ZM469.256 73.3125H488.494L455.606 159.75C448.594 178.388 436.894 186.675 418.106 186.675C415.031 186.675 411.881 186.413 408.731 185.925V170.213C411.731 170.625 414.281 170.813 416.644 170.813C426.394 170.813 432.356 167.363 435.844 159.338L436.031 158.813L403.969 73.3125H423.619L446.306 140.4L469.256 73.3125ZM514.145 45V98.5875C518.12 81.4125 528.77 71.0625 543.432 71.0625C563.42 71.0625 577.595 89.1 577.595 114.637C577.595 140.175 563.42 158.25 543.395 158.25C528.77 158.25 518.12 147.862 514.145 130.687V156H495.32V45H514.145ZM514.145 114.637C514.145 131.812 522.507 141.9 536.645 141.9C551.007 141.9 558.695 132.412 558.695 114.637C558.695 96.8625 551.007 87.4125 536.645 87.4125C522.47 87.4125 514.145 97.4625 514.145 114.637ZM605.405 116.625V156H586.58V73.3125H605.405V100.837C608.817 83.775 618.417 73.3125 635.217 73.3125H639.567V91.0875H633.38C612.08 91.0875 605.405 99.2625 605.405 116.625ZM667.521 45V64.2H648.096V45H667.521ZM667.221 73.3125V156H648.396V73.3125H667.221ZM678.173 102.862C678.173 83.325 693.023 71.0625 716.873 71.0625C741.736 71.0625 756.586 84.4125 756.586 106.95V156H737.761V134.325C733.898 149.175 721.673 158.25 704.873 158.25C687.398 158.25 675.736 148.387 675.736 133.575C675.736 118.2 688.298 108.862 709.036 108.862H737.761V106.95C737.761 94.4625 729.698 86.775 716.498 86.775C703.073 86.775 696.961 93.0375 696.961 102.862H678.173ZM737.761 122.062H710.086C699.886 122.062 694.486 125.587 694.486 132.3C694.486 139.35 700.523 143.287 711.323 143.287C726.698 143.287 737.761 135.375 737.761 124.425V122.062ZM820.376 102.375C820.376 126.712 832.038 140.775 851.913 140.775C867.926 140.775 877.901 131.512 881.163 113.625H900.813C896.538 141.412 878.163 158.25 851.876 158.25C821.576 158.25 800.576 135.825 800.576 102.375C800.576 68.925 821.576 46.5 851.876 46.5C878.163 46.5 896.538 63.3375 900.813 91.125H881.163C877.901 73.2375 867.926 63.975 851.913 63.975C832.038 63.975 820.376 78.0375 820.376 102.375ZM930.307 111.937V156H911.482V45H930.307V97.65C934.057 80.775 944.782 71.0625 960.195 71.0625C978.495 71.0625 988.957 84.8625 988.957 108.862V156H970.132V110.737C970.132 95.4 963.982 87.675 951.495 87.675C938.145 87.675 930.307 96.45 930.307 111.937ZM999.56 102.862C999.56 83.325 1014.41 71.0625 1038.26 71.0625C1063.12 71.0625 1077.97 84.4125 1077.97 106.95V156H1059.15V134.325C1055.29 149.175 1043.06 158.25 1026.26 158.25C1008.79 158.25 997.123 148.387 997.123 133.575C997.123 118.2 1009.69 108.862 1030.42 108.862H1059.15V106.95C1059.15 94.4625 1051.09 86.775 1037.89 86.775C1024.46 86.775 1018.35 93.0375 1018.35 102.862H999.56ZM1059.15 122.062H1031.47C1021.27 122.062 1015.87 125.587 1015.87 132.3C1015.87 139.35 1021.91 143.287 1032.71 143.287C1048.09 143.287 1059.15 135.375 1059.15 124.425V122.062ZM1107.56 45V64.2H1088.14V45H1107.56ZM1107.26 73.3125V156H1088.44V73.3125H1107.26ZM1136.85 111.937V156H1118.03V73.3125H1136.85V97.65C1140.6 80.775 1151.33 71.0625 1166.74 71.0625C1185.04 71.0625 1195.5 84.8625 1195.5 108.862V156H1176.68V110.737C1176.68 95.4 1170.53 87.675 1158.04 87.675C1144.69 87.675 1136.85 96.45 1136.85 111.937Z" fill="black"/>
<path d="M199.996 0H42.8563L0 79.1919H41.0131L63.1325 36.8216H180.642L199.996 0Z" fill="black"/>
<path d="M247.001 81.7136L204.605 3.02637L184.329 39.848L207.37 81.7136L148.846 189.152L168.661 226.478L247.001 81.7136Z" fill="black"/>
<path d="M78.8003 229L0 84.7402H41.0131L99.0766 191.674H144.698L164.974 229H78.8003Z" fill="black"/>
<path d="M179.524 41.499L200.573 80.7234L193.71 93.1366C193.71 93.1366 191.879 87.6748 189.134 84.1988C186.389 80.7234 179.524 78.2409 179.524 78.2409H89.8395C84.8061 68.807 83.0011 66.8212 79.7728 57.884C76.5445 48.9467 91.2119 42.492 91.2119 42.492L179.524 41.499Z" fill="black"/>
<path d="M145.53 185.408H101.691L95.2305 172.778C95.2305 172.778 100.738 173.631 104.921 172.778C109.104 171.926 114.151 167.726 114.151 167.726L160.297 83.3623C170.429 83.36 173.479 82.6197 182.299 84.0891C191.119 85.5586 188.903 102.864 188.903 102.864L145.53 185.408Z" fill="black"/>
<path d="M45.1699 80.7552L66.6214 41.9375H81.3883C81.3883 41.9375 77.6537 45.0954 76.312 49.5152C74.9702 53.9349 74.9278 59.6187 74.9278 59.6187L120.151 145.499C115.252 155.207 113.826 157.257 108.385 164.997C102.943 172.736 90.1803 162.242 90.1803 162.242L45.1699 80.7552Z" fill="black"/>
</svg>
